<mxfile host="app.diagrams.net" agent="Mozilla/5.0 (Windows NT 10.0; Win64; x64) AppleWebKit/537.36 (KHTML, like Gecko) Chrome/128.0.0.0 Safari/537.36" version="24.7.7">
  <diagram name="Page-1" id="-OjTuoedmdQ_PuTkQpAq">
    <mxGraphModel dx="1050" dy="557" grid="1" gridSize="10" guides="1" tooltips="1" connect="1" arrows="1" fold="1" page="1" pageScale="1" pageWidth="850" pageHeight="1100" math="0" shadow="0">
      <root>
        <mxCell id="0" />
        <mxCell id="1" parent="0" />
        <mxCell id="hsuwf4feveRouKzLAgyw-4" value="" style="rounded=0;whiteSpace=wrap;html=1;strokeColor=#FFFFFF;" parent="1" vertex="1">
          <mxGeometry x="40" y="110" width="730" height="590" as="geometry" />
        </mxCell>
        <mxCell id="hsuwf4feveRouKzLAgyw-10" value="" style="ellipse;html=1;strokeWidth=2;rotation=90;fillStyle=solid;fillColor=#050505;" parent="1" vertex="1">
          <mxGeometry x="411" y="119" width="30" height="30" as="geometry" />
        </mxCell>
        <mxCell id="hsuwf4feveRouKzLAgyw-18" value="" style="endArrow=classic;html=1;rounded=0;exitX=1;exitY=0.5;exitDx=0;exitDy=0;entryX=0;entryY=0.5;entryDx=0;entryDy=0;" parent="1" edge="1">
          <mxGeometry width="50" height="50" relative="1" as="geometry">
            <mxPoint x="455.5" y="241" as="sourcePoint" />
            <mxPoint x="620" y="240.5" as="targetPoint" />
          </mxGeometry>
        </mxCell>
        <mxCell id="hsuwf4feveRouKzLAgyw-19" value="&lt;font style=&quot;font-size: 14px;&quot;&gt;[unauthorized]&lt;/font&gt;" style="text;html=1;align=center;verticalAlign=middle;whiteSpace=wrap;rounded=0;" parent="1" vertex="1">
          <mxGeometry x="488" y="220" width="120" height="20" as="geometry" />
        </mxCell>
        <mxCell id="hsuwf4feveRouKzLAgyw-23" value="&lt;font style=&quot;font-size: 15px;&quot;&gt;&lt;b&gt;&lt;font style=&quot;font-size: 15px;&quot;&gt;Alert &quot;Not a valid administrator&lt;/font&gt;&lt;span style=&quot;background-color: initial;&quot;&gt;&quot;&lt;/span&gt;&lt;/b&gt;&lt;/font&gt;" style="rounded=1;whiteSpace=wrap;html=1;arcSize=40;" parent="1" vertex="1">
          <mxGeometry x="621" y="220" width="139" height="42" as="geometry" />
        </mxCell>
        <mxCell id="hsuwf4feveRouKzLAgyw-25" value="" style="ellipse;html=1;shape=endState;fillColor=#000000;strokeColor=#030000;" parent="1" vertex="1">
          <mxGeometry x="676" y="295" width="29" height="30" as="geometry" />
        </mxCell>
        <mxCell id="hsuwf4feveRouKzLAgyw-26" value="" style="endArrow=classic;html=1;rounded=0;exitX=0.5;exitY=1;exitDx=0;exitDy=0;entryX=0.5;entryY=0;entryDx=0;entryDy=0;" parent="1" source="hsuwf4feveRouKzLAgyw-23" target="hsuwf4feveRouKzLAgyw-25" edge="1">
          <mxGeometry width="50" height="50" relative="1" as="geometry">
            <mxPoint x="468.5" y="311" as="sourcePoint" />
            <mxPoint x="633" y="310.5" as="targetPoint" />
          </mxGeometry>
        </mxCell>
        <mxCell id="hsuwf4feveRouKzLAgyw-27" value="&lt;font style=&quot;font-size: 14px;&quot;&gt;[authorized]&lt;/font&gt;" style="text;html=1;align=center;verticalAlign=middle;whiteSpace=wrap;rounded=0;" parent="1" vertex="1">
          <mxGeometry x="311" y="253" width="85" height="24" as="geometry" />
        </mxCell>
        <mxCell id="hsuwf4feveRouKzLAgyw-28" value="&lt;span style=&quot;font-size: 15px;&quot;&gt;&lt;b&gt;View Student List&lt;/b&gt;&lt;/span&gt;" style="rounded=1;whiteSpace=wrap;html=1;arcSize=40;" parent="1" vertex="1">
          <mxGeometry x="343.5" y="170" width="167.5" height="30" as="geometry" />
        </mxCell>
        <mxCell id="hsuwf4feveRouKzLAgyw-32" value="" style="rhombus;whiteSpace=wrap;html=1;" parent="1" vertex="1">
          <mxGeometry x="394.5" y="221" width="60" height="40" as="geometry" />
        </mxCell>
        <mxCell id="hsuwf4feveRouKzLAgyw-43" value="" style="endArrow=classic;html=1;rounded=0;" parent="1" edge="1">
          <mxGeometry width="50" height="50" relative="1" as="geometry">
            <mxPoint x="425" y="200" as="sourcePoint" />
            <mxPoint x="425" y="221" as="targetPoint" />
          </mxGeometry>
        </mxCell>
        <mxCell id="hsuwf4feveRouKzLAgyw-45" value="" style="endArrow=classic;html=1;rounded=0;" parent="1" edge="1">
          <mxGeometry width="50" height="50" relative="1" as="geometry">
            <mxPoint x="425" y="149" as="sourcePoint" />
            <mxPoint x="425" y="170" as="targetPoint" />
          </mxGeometry>
        </mxCell>
        <mxCell id="hsuwf4feveRouKzLAgyw-47" value="&lt;span style=&quot;font-size: 15px;&quot;&gt;&lt;b&gt;Register Member&lt;/b&gt;&lt;/span&gt;" style="rounded=1;whiteSpace=wrap;html=1;arcSize=40;" parent="1" vertex="1">
          <mxGeometry x="337.5" y="508" width="173" height="30" as="geometry" />
        </mxCell>
        <mxCell id="hsuwf4feveRouKzLAgyw-48" value="" style="endArrow=classic;html=1;rounded=0;" parent="1" edge="1">
          <mxGeometry width="50" height="50" relative="1" as="geometry">
            <mxPoint x="425" y="312" as="sourcePoint" />
            <mxPoint x="425" y="333" as="targetPoint" />
          </mxGeometry>
        </mxCell>
        <mxCell id="hsuwf4feveRouKzLAgyw-50" value="&lt;font style=&quot;font-size: 15px;&quot;&gt;&lt;b&gt;Check Request&lt;/b&gt;&lt;/font&gt;" style="rounded=1;whiteSpace=wrap;html=1;arcSize=40;" parent="1" vertex="1">
          <mxGeometry x="360" y="280" width="134.75" height="33" as="geometry" />
        </mxCell>
        <mxCell id="hsuwf4feveRouKzLAgyw-51" value="&lt;span style=&quot;font-size: 15px;&quot;&gt;&lt;b&gt;Check Available Rooms&lt;/b&gt;&lt;/span&gt;" style="rounded=1;whiteSpace=wrap;html=1;arcSize=40;" parent="1" vertex="1">
          <mxGeometry x="332" y="394" width="189" height="30" as="geometry" />
        </mxCell>
        <mxCell id="W7Onl-P6QppJBiZPLQIE-1" value="" style="endArrow=classic;html=1;rounded=0;" parent="1" edge="1">
          <mxGeometry width="50" height="50" relative="1" as="geometry">
            <mxPoint x="425" y="262" as="sourcePoint" />
            <mxPoint x="425" y="283" as="targetPoint" />
          </mxGeometry>
        </mxCell>
        <mxCell id="W7Onl-P6QppJBiZPLQIE-2" value="" style="rhombus;whiteSpace=wrap;html=1;" parent="1" vertex="1">
          <mxGeometry x="394.5" y="333" width="60" height="40" as="geometry" />
        </mxCell>
        <mxCell id="W7Onl-P6QppJBiZPLQIE-3" value="" style="endArrow=classic;html=1;rounded=0;exitX=0;exitY=0.5;exitDx=0;exitDy=0;entryX=1;entryY=0.5;entryDx=0;entryDy=0;" parent="1" source="W7Onl-P6QppJBiZPLQIE-2" target="W7Onl-P6QppJBiZPLQIE-5" edge="1">
          <mxGeometry width="50" height="50" relative="1" as="geometry">
            <mxPoint x="403.5" y="396" as="sourcePoint" />
            <mxPoint x="568" y="395.5" as="targetPoint" />
          </mxGeometry>
        </mxCell>
        <mxCell id="W7Onl-P6QppJBiZPLQIE-4" value="&lt;font style=&quot;font-size: 14px;&quot;&gt;[not any request]&lt;/font&gt;" style="text;html=1;align=center;verticalAlign=middle;whiteSpace=wrap;rounded=0;" parent="1" vertex="1">
          <mxGeometry x="227" y="331" width="123" height="20" as="geometry" />
        </mxCell>
        <mxCell id="W7Onl-P6QppJBiZPLQIE-5" value="&lt;font style=&quot;font-size: 15px;&quot;&gt;&lt;b&gt;&lt;font style=&quot;font-size: 15px;&quot;&gt;Alert &quot;Does&#39;t have any Reqest&lt;/font&gt;&lt;span style=&quot;background-color: initial;&quot;&gt;&quot;&lt;/span&gt;&lt;/b&gt;&lt;/font&gt;" style="rounded=1;whiteSpace=wrap;html=1;arcSize=40;" parent="1" vertex="1">
          <mxGeometry x="54" y="331" width="139" height="42" as="geometry" />
        </mxCell>
        <mxCell id="W7Onl-P6QppJBiZPLQIE-6" value="" style="endArrow=classic;html=1;rounded=0;exitX=0.5;exitY=1;exitDx=0;exitDy=0;entryX=0.5;entryY=0;entryDx=0;entryDy=0;" parent="1" edge="1">
          <mxGeometry width="50" height="50" relative="1" as="geometry">
            <mxPoint x="124" y="373" as="sourcePoint" />
            <mxPoint x="124" y="406" as="targetPoint" />
          </mxGeometry>
        </mxCell>
        <mxCell id="W7Onl-P6QppJBiZPLQIE-7" value="" style="ellipse;html=1;shape=endState;fillColor=#000000;strokeColor=#030000;" parent="1" vertex="1">
          <mxGeometry x="109" y="406" width="29" height="30" as="geometry" />
        </mxCell>
        <mxCell id="W7Onl-P6QppJBiZPLQIE-9" value="" style="endArrow=classic;html=1;rounded=0;" parent="1" edge="1">
          <mxGeometry width="50" height="50" relative="1" as="geometry">
            <mxPoint x="425" y="372" as="sourcePoint" />
            <mxPoint x="425" y="393" as="targetPoint" />
          </mxGeometry>
        </mxCell>
        <mxCell id="W7Onl-P6QppJBiZPLQIE-11" value="&lt;span style=&quot;font-size: 14px;&quot;&gt;&lt;b&gt;[Not Available]&lt;/b&gt;&lt;/span&gt;" style="text;html=1;align=center;verticalAlign=middle;whiteSpace=wrap;rounded=0;" parent="1" vertex="1">
          <mxGeometry x="490" y="445" width="100" height="20" as="geometry" />
        </mxCell>
        <mxCell id="W7Onl-P6QppJBiZPLQIE-12" value="&lt;font style=&quot;font-size: 15px;&quot;&gt;&lt;b&gt;&lt;font style=&quot;font-size: 15px;&quot;&gt;Alert &quot;Request Denied&lt;/font&gt;&lt;span style=&quot;background-color: initial;&quot;&gt;&quot;&lt;/span&gt;&lt;/b&gt;&lt;/font&gt;" style="rounded=1;whiteSpace=wrap;html=1;arcSize=40;" parent="1" vertex="1">
          <mxGeometry x="621" y="446" width="135" height="42" as="geometry" />
        </mxCell>
        <mxCell id="W7Onl-P6QppJBiZPLQIE-13" value="&lt;font style=&quot;font-size: 14px;&quot;&gt;&lt;b&gt;[request]&lt;/b&gt;&lt;/font&gt;" style="text;html=1;align=center;verticalAlign=middle;whiteSpace=wrap;rounded=0;" parent="1" vertex="1">
          <mxGeometry x="442" y="366" width="73" height="20" as="geometry" />
        </mxCell>
        <mxCell id="W7Onl-P6QppJBiZPLQIE-16" value="" style="ellipse;html=1;shape=endState;fillColor=#000000;strokeColor=#030000;" parent="1" vertex="1">
          <mxGeometry x="674" y="522" width="29" height="30" as="geometry" />
        </mxCell>
        <mxCell id="W7Onl-P6QppJBiZPLQIE-18" value="" style="endArrow=classic;html=1;rounded=0;exitX=0.5;exitY=1;exitDx=0;exitDy=0;entryX=0.5;entryY=0;entryDx=0;entryDy=0;" parent="1" edge="1">
          <mxGeometry width="50" height="50" relative="1" as="geometry">
            <mxPoint x="689" y="489" as="sourcePoint" />
            <mxPoint x="689" y="522" as="targetPoint" />
          </mxGeometry>
        </mxCell>
        <mxCell id="W7Onl-P6QppJBiZPLQIE-19" value="" style="endArrow=classic;html=1;rounded=0;" parent="1" edge="1">
          <mxGeometry width="50" height="50" relative="1" as="geometry">
            <mxPoint x="425" y="425" as="sourcePoint" />
            <mxPoint x="425" y="446" as="targetPoint" />
          </mxGeometry>
        </mxCell>
        <mxCell id="W7Onl-P6QppJBiZPLQIE-21" value="" style="rhombus;whiteSpace=wrap;html=1;" parent="1" vertex="1">
          <mxGeometry x="394.5" y="446" width="60" height="40" as="geometry" />
        </mxCell>
        <mxCell id="W7Onl-P6QppJBiZPLQIE-22" value="" style="endArrow=classic;html=1;rounded=0;exitX=1;exitY=0.5;exitDx=0;exitDy=0;entryX=0;entryY=0.5;entryDx=0;entryDy=0;" parent="1" edge="1">
          <mxGeometry width="50" height="50" relative="1" as="geometry">
            <mxPoint x="454.5" y="466" as="sourcePoint" />
            <mxPoint x="619" y="465.5" as="targetPoint" />
          </mxGeometry>
        </mxCell>
        <mxCell id="W7Onl-P6QppJBiZPLQIE-23" value="" style="endArrow=classic;html=1;rounded=0;" parent="1" edge="1">
          <mxGeometry width="50" height="50" relative="1" as="geometry">
            <mxPoint x="425" y="486" as="sourcePoint" />
            <mxPoint x="425" y="507" as="targetPoint" />
          </mxGeometry>
        </mxCell>
        <mxCell id="W7Onl-P6QppJBiZPLQIE-24" value="" style="endArrow=classic;html=1;rounded=0;" parent="1" edge="1">
          <mxGeometry width="50" height="50" relative="1" as="geometry">
            <mxPoint x="425" y="538" as="sourcePoint" />
            <mxPoint x="425" y="559" as="targetPoint" />
          </mxGeometry>
        </mxCell>
        <mxCell id="W7Onl-P6QppJBiZPLQIE-31" value="" style="endArrow=none;html=1;rounded=0;exitX=0.341;exitY=0.527;exitDx=0;exitDy=0;exitPerimeter=0;entryX=0.694;entryY=0.527;entryDx=0;entryDy=0;entryPerimeter=0;strokeWidth=2;" parent="1" edge="1">
          <mxGeometry width="50" height="50" relative="1" as="geometry">
            <mxPoint x="272.8499999999999" y="559.7" as="sourcePoint" />
            <mxPoint x="572.9000000000001" y="559.7" as="targetPoint" />
          </mxGeometry>
        </mxCell>
        <mxCell id="W7Onl-P6QppJBiZPLQIE-32" value="&lt;span style=&quot;font-size: 14px;&quot;&gt;&lt;b&gt;[Available]&lt;/b&gt;&lt;/span&gt;" style="text;html=1;align=center;verticalAlign=middle;whiteSpace=wrap;rounded=0;" parent="1" vertex="1">
          <mxGeometry x="323" y="481" width="83" height="20" as="geometry" />
        </mxCell>
        <mxCell id="W7Onl-P6QppJBiZPLQIE-33" value="&lt;span style=&quot;font-size: 15px;&quot;&gt;&lt;b&gt;Allocate Room&lt;/b&gt;&lt;/span&gt;" style="rounded=1;whiteSpace=wrap;html=1;arcSize=40;" parent="1" vertex="1">
          <mxGeometry x="362" y="582" width="134" height="28" as="geometry" />
        </mxCell>
        <mxCell id="W7Onl-P6QppJBiZPLQIE-34" value="" style="endArrow=classic;html=1;rounded=0;" parent="1" edge="1">
          <mxGeometry width="50" height="50" relative="1" as="geometry">
            <mxPoint x="425" y="560" as="sourcePoint" />
            <mxPoint x="425" y="581" as="targetPoint" />
          </mxGeometry>
        </mxCell>
        <mxCell id="W7Onl-P6QppJBiZPLQIE-36" value="" style="endArrow=classic;html=1;rounded=0;" parent="1" edge="1">
          <mxGeometry width="50" height="50" relative="1" as="geometry">
            <mxPoint x="549" y="560" as="sourcePoint" />
            <mxPoint x="549" y="581" as="targetPoint" />
          </mxGeometry>
        </mxCell>
        <mxCell id="W7Onl-P6QppJBiZPLQIE-37" value="&lt;span style=&quot;font-size: 15px;&quot;&gt;&lt;b&gt;Manage Payment Details&lt;/b&gt;&lt;/span&gt;" style="rounded=1;whiteSpace=wrap;html=1;arcSize=40;" parent="1" vertex="1">
          <mxGeometry x="507.5" y="582" width="186.5" height="30" as="geometry" />
        </mxCell>
        <mxCell id="W7Onl-P6QppJBiZPLQIE-38" value="" style="endArrow=classic;html=1;rounded=0;" parent="1" edge="1">
          <mxGeometry width="50" height="50" relative="1" as="geometry">
            <mxPoint x="304" y="560" as="sourcePoint" />
            <mxPoint x="304" y="581" as="targetPoint" />
          </mxGeometry>
        </mxCell>
        <mxCell id="W7Onl-P6QppJBiZPLQIE-39" value="&lt;span style=&quot;font-size: 15px;&quot;&gt;&lt;b&gt;Generate Barcode&lt;/b&gt;&lt;/span&gt;" style="rounded=1;whiteSpace=wrap;html=1;arcSize=40;" parent="1" vertex="1">
          <mxGeometry x="200" y="582" width="144" height="28" as="geometry" />
        </mxCell>
        <mxCell id="W7Onl-P6QppJBiZPLQIE-40" value="" style="endArrow=none;html=1;rounded=0;exitX=0.341;exitY=0.527;exitDx=0;exitDy=0;exitPerimeter=0;entryX=0.694;entryY=0.527;entryDx=0;entryDy=0;entryPerimeter=0;strokeWidth=2;" parent="1" edge="1">
          <mxGeometry width="50" height="50" relative="1" as="geometry">
            <mxPoint x="272.8499999999999" y="634.7" as="sourcePoint" />
            <mxPoint x="572.9000000000001" y="634.7" as="targetPoint" />
          </mxGeometry>
        </mxCell>
        <mxCell id="W7Onl-P6QppJBiZPLQIE-41" value="" style="endArrow=classic;html=1;rounded=0;" parent="1" edge="1">
          <mxGeometry width="50" height="50" relative="1" as="geometry">
            <mxPoint x="304" y="611" as="sourcePoint" />
            <mxPoint x="304" y="632" as="targetPoint" />
          </mxGeometry>
        </mxCell>
        <mxCell id="W7Onl-P6QppJBiZPLQIE-42" value="" style="endArrow=classic;html=1;rounded=0;" parent="1" edge="1">
          <mxGeometry width="50" height="50" relative="1" as="geometry">
            <mxPoint x="425" y="611" as="sourcePoint" />
            <mxPoint x="425" y="632" as="targetPoint" />
          </mxGeometry>
        </mxCell>
        <mxCell id="W7Onl-P6QppJBiZPLQIE-43" value="" style="endArrow=classic;html=1;rounded=0;" parent="1" edge="1">
          <mxGeometry width="50" height="50" relative="1" as="geometry">
            <mxPoint x="549" y="611" as="sourcePoint" />
            <mxPoint x="549" y="632" as="targetPoint" />
          </mxGeometry>
        </mxCell>
        <mxCell id="W7Onl-P6QppJBiZPLQIE-44" value="" style="endArrow=classic;html=1;rounded=0;" parent="1" edge="1">
          <mxGeometry width="50" height="50" relative="1" as="geometry">
            <mxPoint x="425" y="635" as="sourcePoint" />
            <mxPoint x="425" y="656" as="targetPoint" />
          </mxGeometry>
        </mxCell>
        <mxCell id="W7Onl-P6QppJBiZPLQIE-45" value="" style="ellipse;html=1;shape=endState;fillColor=#000000;strokeColor=#030000;" parent="1" vertex="1">
          <mxGeometry x="410.5" y="657" width="29" height="30" as="geometry" />
        </mxCell>
      </root>
    </mxGraphModel>
  </diagram>
</mxfile>
